<svg width="50" height="51" viewBox="0 0 50 51" fill="none" xmlns="http://www.w3.org/2000/svg">
<circle cx="24.9615" cy="25.8844" r="24.9615" fill="#5296D5"/>
<path d="M37.9992 31.1428V34.6052C38.0007 34.9266 37.9261 35.2448 37.7802 35.5393C37.6344 35.8338 37.4205 36.0982 37.1522 36.3155C36.8839 36.5328 36.5672 36.6982 36.2223 36.8012C35.8774 36.9042 35.5119 36.9424 35.1493 36.9135C31.1266 36.5276 27.2626 35.314 23.8676 33.3703C20.709 31.5983 18.031 29.234 16.0239 26.4454C13.8146 23.4345 12.4397 20.0064 12.0106 16.439C11.9779 16.1198 12.0209 15.7982 12.1368 15.4945C12.2526 15.1908 12.4388 14.9117 12.6836 14.675C12.9283 14.4383 13.2261 14.2493 13.5581 14.1198C13.8902 13.9903 14.2491 13.9233 14.6121 13.923H18.5339C19.1683 13.9175 19.7834 14.1158 20.2644 14.481C20.7455 14.8463 21.0597 15.3535 21.1484 15.9081C21.314 17.0161 21.621 18.1041 22.0635 19.1512C22.2394 19.5643 22.2775 20.0133 22.1732 20.4449C22.069 20.8765 21.8267 21.2727 21.4753 21.5865L19.815 23.0522C21.676 25.9417 24.3858 28.3341 27.6587 29.9771L29.3189 28.5113C29.6743 28.201 30.1231 27.9872 30.612 27.8951C31.1008 27.8031 31.6093 27.8367 32.0772 27.992C33.2633 28.3827 34.4956 28.6537 35.7507 28.7999C36.3857 28.879 36.9657 29.1613 37.3802 29.5933C37.7948 30.0253 38.0151 30.5768 37.9992 31.1428Z" stroke="white" stroke-width="2" stroke-linecap="round" stroke-linejoin="round"/>
</svg>
