<svg width="28" height="28" viewBox="0 0 28 28" fill="none" xmlns="http://www.w3.org/2000/svg">
<circle cx="14" cy="14" r="14" fill="#D6F1DA"/>
<path d="M14.2744 6.03906C10.0362 6.03906 6.58813 9.48717 6.58813 13.7253C6.58813 17.9635 10.0362 21.4116 14.2744 21.4116C18.5126 21.4116 21.9607 17.9635 21.9607 13.7253C21.9607 9.48717 18.5126 6.03906 14.2744 6.03906ZM18.2746 11.1493L13.3081 17.0618C13.2536 17.1267 13.1858 17.1792 13.1093 17.2156C13.0328 17.252 12.9494 17.2715 12.8646 17.2728H12.8547C12.7718 17.2728 12.6899 17.2554 12.6142 17.2216C12.5385 17.1879 12.4707 17.1386 12.4153 17.077L10.2868 14.712C10.2327 14.6547 10.1907 14.5871 10.1631 14.5133C10.1355 14.4395 10.123 14.3609 10.1262 14.2821C10.1295 14.2034 10.1484 14.1261 10.1819 14.0548C10.2155 13.9835 10.2629 13.9196 10.3215 13.8669C10.38 13.8142 10.4486 13.7737 10.523 13.7479C10.5974 13.722 10.6763 13.7113 10.7549 13.7164C10.8336 13.7214 10.9104 13.7421 10.9809 13.7773C11.0514 13.8125 11.1142 13.8614 11.1655 13.9212L12.8391 15.7807L17.3692 10.3888C17.4709 10.2713 17.6146 10.1986 17.7695 10.1862C17.9243 10.1739 18.0778 10.223 18.1967 10.3229C18.3157 10.4228 18.3905 10.5655 18.4051 10.7201C18.4196 10.8748 18.3728 11.029 18.2746 11.1493V11.1493Z" fill="#47CA5C"/>
</svg>

