<svg
            width="50"
            height="50"
            viewBox="0 0 50 50"
            fill="none"
            xmlns="http://www.w3.org/2000/svg"
          >
            <circle cx="24.9615" cy="24.9615" r="24.9615" fill="#4CCA5B" />
            <path
              d="M10.5276 38.6649L12.5291 31.3714C11.2949 29.2322 10.6458 26.8092 10.6462 24.3433C10.6462 16.5902 16.9624 10.2744 24.7159 10.2744C28.4817 10.2744 32.0102 11.7423 34.6784 14.3956C35.9896 15.7031 37.0286 17.2547 37.7358 18.9616C38.4431 20.6685 38.8047 22.4973 38.8001 24.3433C38.8001 32.0973 32.4847 38.413 24.7304 38.413C22.3738 38.413 20.0607 37.8195 17.9994 36.6933L10.5276 38.6649V38.6649Z"
              fill="url(#paint0_linear_0_1)"
            />
            <g filter="url(#filter0_d_0_1)">
              <path
                d="M10.022 39.1713L12.0978 31.6251C10.8216 29.4088 10.152 26.8988 10.1559 24.3452C10.1406 16.2953 16.6787 9.75732 24.7147 9.75732C28.6137 9.75732 32.2753 11.2693 35.0331 14.0269C37.7909 16.7846 39.3025 20.4462 39.3025 24.3452C39.3025 32.3807 32.7652 38.9194 24.7292 38.9194C22.2926 38.9226 19.8951 38.3104 17.7618 37.1403L10.022 39.1713ZM18.1032 34.5159L18.5479 34.783C20.4134 35.8874 22.5441 36.4713 24.7155 36.473C31.3867 36.473 36.828 31.0315 36.828 24.3604C36.828 21.1279 35.5682 18.0743 33.285 15.7907C31.0002 13.5088 27.9462 12.2334 24.7139 12.2334C18.0273 12.2334 12.586 17.6749 12.586 24.346C12.586 26.6296 13.2236 28.8682 14.4399 30.7949L14.7215 31.2553L13.4908 35.7327L18.1016 34.5167L18.1032 34.5159Z"
                fill="url(#paint1_linear_0_1)"
              />
            </g>
            <path
              fill-rule="evenodd"
              clip-rule="evenodd"
              d="M21.0835 18.2373C20.8172 17.6293 20.5202 17.6148 20.2684 17.6148C20.0456 17.5996 19.8084 17.5996 19.5566 17.5996C19.3193 17.5996 18.919 17.6886 18.5784 18.0592C18.237 18.4298 17.3032 19.3049 17.3032 21.0992C17.3032 22.8927 18.6083 24.6276 18.7858 24.8643C18.9634 25.1017 21.3063 28.8972 25.0124 30.3651C28.0962 31.5803 28.7192 31.3437 29.3867 31.2691C30.0533 31.1953 31.5359 30.3948 31.8474 29.5341C32.1436 28.6895 32.1436 27.9484 32.0549 27.8C31.9661 27.6516 31.7135 27.5625 31.3575 27.37C30.9871 27.192 29.2083 26.3032 28.8669 26.1837C28.5263 26.065 28.2891 26.0057 28.0518 26.3618C27.8145 26.7324 27.118 27.5481 26.8953 27.7847C26.6878 28.0221 26.4659 28.0518 26.11 27.8738C25.7387 27.6965 24.5685 27.3107 23.1739 26.065C22.0924 25.1017 21.366 23.9009 21.1433 23.5448C20.9358 23.1742 21.1134 22.9817 21.3063 22.8037C21.4693 22.6408 21.6775 22.3737 21.8551 22.166C22.0327 21.9582 22.0916 21.7954 22.2255 21.558C22.3442 21.3214 22.2845 21.0984 22.1957 20.9211C22.1069 20.7575 21.4096 18.964 21.0835 18.2373V18.2373Z"
              fill="white"
            />
            <defs>
              <filter
                id="filter0_d_0_1"
                x="6.02197"
                y="9.75732"
                width="37.2805"
                height="37.4141"
                filterUnits="userSpaceOnUse"
                color-interpolation-filters="sRGB"
              >
                <feFlood flood-opacity="0" result="BackgroundImageFix" />
                <feColorMatrix
                  in="SourceAlpha"
                  type="matrix"
                  values="0 0 0 0 0 0 0 0 0 0 0 0 0 0 0 0 0 0 127 0"
                  result="hardAlpha"
                />
                <feOffset dy="4" />
                <feGaussianBlur stdDeviation="2" />
                <feComposite in2="hardAlpha" operator="out" />
                <feColorMatrix
                  type="matrix"
                  values="0 0 0 0 0 0 0 0 0 0 0 0 0 0 0 0 0 0 0.14 0"
                />
                <feBlend
                  mode="normal"
                  in2="BackgroundImageFix"
                  result="effect1_dropShadow_0_1"
                />
                <feBlend
                  mode="normal"
                  in="SourceGraphic"
                  in2="effect1_dropShadow_0_1"
                  result="shape"
                />
              </filter>
              <linearGradient
                id="paint0_linear_0_1"
                x1="24.661"
                y1="38.6633"
                x2="24.661"
                y2="10.2688"
                gradientUnits="userSpaceOnUse"
              >
                <stop stop-color="#20B038" />
                <stop offset="1" stop-color="#60D66A" />
              </linearGradient>
              <linearGradient
                id="paint1_linear_0_1"
                x1="24.6598"
                y1="39.1745"
                x2="24.6598"
                y2="9.76134"
                gradientUnits="userSpaceOnUse"
              >
                <stop stop-color="#F9F9F9" />
                <stop offset="1" stop-color="white" />
              </linearGradient>
            </defs>
          </svg>